<?xml version="1.0" encoding="UTF-8" standalone="no"?>
<svg
   xmlns:dc="http://purl.org/dc/elements/1.1/"
   xmlns:cc="http://creativecommons.org/ns#"
   xmlns:rdf="http://www.w3.org/1999/02/22-rdf-syntax-ns#"
   xmlns:svg="http://www.w3.org/2000/svg"
   xmlns="http://www.w3.org/2000/svg"
   xmlns:sodipodi="http://sodipodi.sourceforge.net/DTD/sodipodi-0.dtd"
   xmlns:inkscape="http://www.inkscape.org/namespaces/inkscape"
   version="1.1"
   id="Capa_1"
   x="0px"
   y="0px"
   viewBox="0 0 53.74 53.74"
   style="enable-background:new 0 0 53.74 53.74;"
   xml:space="preserve"
   sodipodi:docname="candy.svg"
   inkscape:version="1.0.1 (3bc2e813f5, 2020-09-07)"><style
   id="style91"></style><metadata
   id="metadata89"><rdf:RDF><cc:Work
       rdf:about=""><dc:format>image/svg+xml</dc:format><dc:type
         rdf:resource="http://purl.org/dc/dcmitype/StillImage" /></cc:Work></rdf:RDF></metadata><defs
   id="defs87" /><sodipodi:namedview
   pagecolor="#ffffff"
   bordercolor="#666666"
   borderopacity="1"
   objecttolerance="10"
   gridtolerance="10"
   guidetolerance="10"
   inkscape:pageopacity="0"
   inkscape:pageshadow="2"
   inkscape:window-width="1920"
   inkscape:window-height="1016"
   id="namedview85"
   showgrid="false"
   inkscape:zoom="15.351693"
   inkscape:cx="26.87"
   inkscape:cy="26.87"
   inkscape:window-x="1680"
   inkscape:window-y="27"
   inkscape:window-maximized="1"
   inkscape:current-layer="Capa_1" />
  <style>
    @keyframes display1 { 0%, 10% { opacity: 0; transform: scale(2); filter: blur(5px); } 21% { opacity: 1; transform: scale(1); filter: blur(0); } }
    @keyframes display2 { 0%, 20% { opacity: 0; transform: scale(2); filter: blur(5px); } 30% { opacity: 1; transform: scale(1); filter: blur(0); } }
    @keyframes display3 { 0%, 29% { opacity: 0; transform: scale(2); filter: blur(5px); } 38% { opacity: 1; transform: scale(1); filter: blur(0); } }
    @keyframes display4 { 0%, 37% { opacity: 0; transform: scale(2); filter: blur(5px); } 45% { opacity: 1; transform: scale(1); filter: blur(0); } }
    @keyframes display5 { 0%, 44% { opacity: 0; transform: scale(2); filter: blur(5px); } 51% { opacity: 1; transform: scale(1); filter: blur(0); } }
    @keyframes display6 { 0%, 50% { opacity: 0; transform: scale(2); filter: blur(5px); } 56% { opacity: 1; transform: scale(1); filter: blur(0); } }
    @keyframes display7 { 0%, 55% { opacity: 0; transform: scale(2); filter: blur(5px); } 60% { opacity: 1; transform: scale(1); filter: blur(0); } }
    @keyframes display8 { 0%, 59% { opacity: 0; transform: scale(2); filter: blur(5px); } 63% { opacity: 1; transform: scale(1); filter: blur(0); } }
    @keyframes display9 { 0%, 62% { opacity: 0; transform: scale(2); filter: blur(5px); } 65% { opacity: 1; transform: scale(1); filter: blur(0); } }
    @keyframes display10 { 0%, 64% { opacity: 0; transform: scale(2); filter: blur(5px); } 66% { opacity: 1; transform: scale(1); filter: blur(0); } }
    @keyframes display11 { 0%, 65% { opacity: 0; transform: scale(2); filter: blur(5px); } 67% { opacity: 1; transform: scale(1); filter: blur(0); } }

    .candy:nth-of-type(2) { animation: display1 10s infinite; }
    .candy:nth-of-type(3) { animation: display2 10s infinite; }
    .candy:nth-of-type(4) { animation: display3 10s infinite; }
    .candy:nth-of-type(5) { animation: display4 10s infinite; }
    .candy:nth-of-type(6) { animation: display5 10s infinite; }
    .candy:nth-of-type(7) { animation: display6 10s infinite; }
    .candy:nth-of-type(8) { animation: display7 10s infinite; }
    .candy:nth-of-type(9) { animation: display8 10s infinite; }
    .candy:nth-of-type(10) { animation: display9 10s infinite; }
    .candy:nth-of-type(11) { animation: display10 10s infinite; }
    .candy:nth-of-type(12) { animation: display11 10s infinite; }

  </style>
  <defs>
     <g id="candy">
       <path
          style="border:solid 2px #000;stroke-width:0.2;fill:#6a3311;stroke:#000000;stroke-opacity:1;stroke-miterlimit:4;stroke-dasharray:none;stroke-linejoin:round;stroke-linecap:butt"
          d="m 42.214,21.42615 2.9085,-1.2467 c 0.3374,-0.1449 0.5565,-0.4767 0.5565,-0.8442 v -1.4455 c 0,-0.5068 -0.4109,-0.9184 -0.9184,-0.9184 h -1.1333 c -0.5068,0 -0.9184,-0.4109 -0.9184,-0.9184 v -1.1333 c 0,-0.5068 -0.4109,-0.9184 -0.9184,-0.9184 h -1.1333 c -0.5068,0 -0.9184,-0.4109 -0.9184,-0.9184 v -1.1333 c 0,-0.5068 -0.4109,-0.9184 -0.9184,-0.9184 h -1.1333 c -0.5068,0 -0.9184,-0.4109 -0.9184,-0.9184 v -1.1326 c 7e-4,-0.5075 -0.4102,-0.9184 -0.9177,-0.9184 h -1.4462 c -0.3675,0 -0.6993,0.2191 -0.8442,0.5565 l -1.246,2.9085 v 0 c -6.2552,7.5726 -13.216,14.5334 -20.7886,20.7886 v 0 l -2.9302,1.2558 c -0.3248,0.1393 -0.5348,0.4578 -0.5348,0.8106 v 1.5071 c 0,0.4872 0.3948,0.882 0.882,0.882 h 1.2068 c 0.4872,0 0.882,0.3948 0.882,0.882 v 1.2068 c 0,0.4872 0.3948,0.882 0.882,0.882 h 1.2068 c 0.4872,0 0.882,0.3948 0.882,0.882 v 1.2068 c 0,0.4872 0.3948,0.882 0.882,0.882 h 1.2068 c 0.4872,0 0.882,0.3948 0.882,0.882 v 1.2068 c 0,0.4872 0.3948,0.882 0.882,0.882 h 1.5071 c 0.3528,0 0.6713,-0.21 0.8106,-0.5341 l 1.2558,-2.9302 v 0 c 6.2517,-7.5761 13.2132,-14.5376 20.7851,-20.7928 z"
          id="path30" />
        <path
          style="fill:#a46f3e;stroke-width:0.7"
          d="m 33.8,14.70125 c -0.1792,0 -0.3584,-0.0686 -0.4949,-0.2051 -0.2737,-0.2737 -0.2737,-0.7161 0,-0.9898 l 0.9898,-0.9898 c 0.2737,-0.2737 0.7161,-0.2737 0.9898,0 0.2737,0.2737 0.2737,0.7161 0,0.9898 l -0.9898,0.9898 c -0.1372,0.1365 -0.3164,0.2051 -0.4949,0.2051 z"
          id="path32" />
        <path
          style="fill:#a46f3e;stroke-width:0.7"
          d="m 35.7796,16.68155 c -0.1792,0 -0.3584,-0.0686 -0.4949,-0.2051 -0.2737,-0.273 -0.2737,-0.7161 0,-0.9898 l 0.9898,-0.9905 c 0.2737,-0.2737 0.7161,-0.2737 0.9898,0 0.2737,0.273 0.2737,0.7161 0,0.9898 l -0.9898,0.9905 c -0.1372,0.1365 -0.3157,0.2051 -0.4949,0.2051 z"
          id="path34" />
        <path
          style="fill:#a46f3e;stroke-width:0.7"
          d="m 37.7599,18.66115 c -0.1792,0 -0.3584,-0.0686 -0.4949,-0.2051 -0.2737,-0.2737 -0.2737,-0.7161 0,-0.9898 l 0.9898,-0.9898 c 0.2737,-0.2737 0.7161,-0.2737 0.9898,0 0.2737,0.2737 0.2737,0.7161 0,0.9898 l -0.9898,0.9898 c -0.1365,0.1372 -0.3157,0.2051 -0.4949,0.2051 z"
          id="path36" />
        <path
          style="fill:#a46f3e;stroke-width:0.7"
          d="m 39.7395,20.64075 c -0.1792,0 -0.3584,-0.0686 -0.4949,-0.2051 -0.2737,-0.2737 -0.2737,-0.7161 0,-0.9898 l 0.9898,-0.9898 c 0.2737,-0.2737 0.7161,-0.2737 0.9898,0 0.2737,0.2737 0.2737,0.7161 0,0.9898 l -0.9898,0.9898 c -0.1365,0.1372 -0.3157,0.2051 -0.4949,0.2051 z"
          id="path38" />
        <path
          style="fill:#a46f3e;stroke-width:0.7"
          d="m 13.0107,35.48985 c -0.1792,0 -0.3584,-0.0686 -0.4949,-0.2051 -0.2737,-0.2737 -0.2737,-0.7161 0,-0.9898 l 0.9898,-0.9898 c 0.2737,-0.2737 0.7161,-0.2737 0.9898,0 0.2737,0.2737 0.2737,0.7161 0,0.9898 l -0.9898,0.9898 c -0.1365,0.1372 -0.3157,0.2051 -0.4949,0.2051 z"
          id="path40" />
        <path
          style="fill:#a46f3e;stroke-width:0.7"
          d="m 14.991,37.47015 c -0.1792,0 -0.3584,-0.0686 -0.4949,-0.2051 -0.2737,-0.2737 -0.2737,-0.7161 0,-0.9898 l 0.9898,-0.9898 c 0.2737,-0.2737 0.7161,-0.2737 0.9898,0 0.2737,0.2737 0.2737,0.7161 0,0.9898 l -0.9898,0.9898 c -0.1372,0.1372 -0.3164,0.2051 -0.4949,0.2051 z"
          id="path42" />
        <path
          style="fill:#a46f3e;stroke-width:0.7"
          d="m 16.9706,39.45045 c -0.1792,0 -0.3584,-0.0686 -0.4949,-0.2051 -0.2737,-0.2737 -0.2737,-0.7161 0,-0.9898 l 0.9898,-0.9898 c 0.2737,-0.2737 0.7161,-0.2737 0.9898,0 0.2737,0.2737 0.2737,0.7161 0,0.9898 l -0.9898,0.9898 c -0.1372,0.1365 -0.3164,0.2051 -0.4949,0.2051 z"
          id="path44" />
        <path
          style="fill:#a46f3e;stroke-width:0.7"
          d="m 18.9509,41.43005 c -0.1792,0 -0.3584,-0.0686 -0.4949,-0.2051 -0.2737,-0.2737 -0.2737,-0.7161 0,-0.9898 l 0.9898,-0.9898 c 0.2737,-0.2737 0.7161,-0.2737 0.9898,0 0.2737,0.2737 0.2737,0.7161 0,0.9898 l -0.9898,0.9898 c -0.1372,0.1365 -0.3157,0.2051 -0.4949,0.2051 z"
          id="path46" />
        <path
          style="fill:#f9d70b;stroke-width:0.690624"
          d="m 27.802908,34.833431 c 3.328078,-3.543958 6.824257,-6.927265 10.476773,-10.14027 L 26.007087,18.803573 c -3.328078,3.543958 -6.824257,6.927265 -10.476773,10.14027 z"
          id="path48" />
        <circle
          style="fill:#ed3f32;stroke-width:0.7"
          cx="27.364901"
          cy="26.87075"
          r="3.8499999"
          id="circle50" />
      </g>
  </defs>
  <use class="candy" href="#candy" x="0" y="0"/>
  <use class="candy" href="#candy" x="-23" y="-7"/>
  <use class="candy" href="#candy" x="15" y="7"/>
  <use class="candy" href="#candy" x="-10" y="0"/>
  <use class="candy" href="#candy" x="-27" y="25"/>
  <use class="candy" href="#candy" x="-8" y="-13"/>
  <use class="candy" href="#candy" x="18" y="23"/>
  <use class="candy" href="#candy" x="20" y="-23"/>
  <use class="candy" href="#candy" x="-3" y="30"/>
  <use class="candy" href="#candy" x="0" y="15"/>
  <use class="candy" href="#candy" x="-26" y="-28"/>
  <use class="candy" href="#candy" x="28" y="-23"/>
</svg>
